<?xml version="1.0" encoding="UTF-8" standalone="no" ?>
<!DOCTYPE svg PUBLIC "-//W3C//DTD SVG 1.1//EN" "http://www.w3.org/Graphics/SVG/1.1/DTD/svg11.dtd">
<svg xmlns="http://www.w3.org/2000/svg" xmlns:xlink="http://www.w3.org/1999/xlink" version="1.1" width="1280" height="1024" viewBox="0 0 1280 1024" xml:space="preserve">
<desc>Created with Fabric.js 5.3.0</desc>
<defs>
</defs>
<g transform="matrix(1 0 0 1 640 512)" id="background-logo"  >
<rect style="stroke: none; stroke-width: 0; stroke-dasharray: none; stroke-linecap: butt; stroke-dashoffset: 0; stroke-linejoin: miter; stroke-miterlimit: 4; fill: rgb(255,255,255); fill-opacity: 0; fill-rule: nonzero; opacity: 1;"  paint-order="stroke"  x="-640" y="-512" rx="0" ry="0" width="1280" height="1024" />
</g>
<g transform="matrix(1.9211538461538462 0 0 1.9211538461538462 720.9724603179225 507.58381950518253)" id="tagline-11e45bf7-6cf1-461d-945b-0b0d2fc5f5a4-logo"  >
<g style=""  paint-order="stroke"   >
		<g transform="matrix(1 0 0 1 0 0)" id="tagline-11e45bf7-6cf1-461d-945b-0b0d2fc5f5a4-logo-path-0"  >
<path style="stroke: rgb(250,40,114); stroke-width: 6.569024898981599; stroke-dasharray: none; stroke-linecap: butt; stroke-dashoffset: 0; stroke-linejoin: miter; stroke-miterlimit: 4; fill: rgb(11,1,5); fill-rule: nonzero; opacity: 1;"  paint-order="stroke"  transform=" translate(-145.23000000000002, 57.05)" d="M 23.47 -104.32 L 5.05 0 L 39.94 0 L 59.98 -114.1 L 16.95 -114.1 Z M 48.09 0 L 107.09 0 L 127.47 -19.23 L 141.32 -97.47 L 124.7 -114.1 L 68.13 -114.1 L 64.71 -95.03 L 106.11 -95.03 L 92.75 -19.07 L 51.51 -19.07 Z M 188.75 -104.32 L 170.34 0 L 205.22 0 L 225.27 -114.1 L 182.23 -114.1 Z M 221.84 -49.39 L 265.69 -49.39 L 269.11 -68.3 L 225.27 -68.3 Z M 229.99 -95.19 L 281.99 -95.19 L 285.41 -114.1 L 233.42 -114.1 Z" stroke-linecap="round" />
</g>
</g>
</g>
<g transform="matrix(1.9211538461538462 0 0 1.9211538461538462 654.0344897226374 527.2625674704852)" id="text-logo"  >
<g style=""  paint-order="stroke"   >
		<g transform="matrix(1 0 0 1 0 0)" id="text-logo-path-0"  >
<filter id="SVGID_696997" y="-87.91940230925967%" height="275.83880461851936%" x="-26.265664160401002%" width="152.531328320802%" >
	<feGaussianBlur in="SourceAlpha" stdDeviation="8.57142857142857"></feGaussianBlur>
	<feOffset dx="0" dy="0" result="oBlur" ></feOffset>
	<feFlood flood-color="rgb(0,0,0)" flood-opacity="1"/>
	<feComposite in2="oBlur" operator="in" />
	<feMerge>
		<feMergeNode></feMergeNode>
		<feMergeNode in="SourceGraphic"></feMergeNode>
	</feMerge>
</filter>
<path style="stroke: rgb(11,1,5); stroke-width: 7.742065059514024; stroke-dasharray: none; stroke-linecap: butt; stroke-dashoffset: 0; stroke-linejoin: miter; stroke-miterlimit: 4; fill: rgb(250,40,114); fill-rule: nonzero; opacity: 1;filter: url(#SVGID_696997);"  paint-order="stroke"  transform=" translate(-138.24, 12.58)" d="M 1.44 -8.28 L 1.44 0 L 14.65 0 C 19.01 0 22.32 -3.31 22.32 -7.67 L 22.32 -17.53 C 22.32 -21.89 19.01 -25.2 14.65 -25.2 L 1.44 -25.2 L 1.44 -10.08 L 6.48 -10.08 L 6.48 -20.16 L 14.65 -20.16 C 16.56 -20.16 17.28 -19.44 17.28 -17.53 L 17.28 -7.67 C 17.28 -5.76 16.56 -5.04 14.65 -5.04 L 6.48 -5.04 L 6.48 -8.28 Z M 55.98 0 L 55.98 -17.53 C 55.98 -21.89 52.67 -25.2 48.31 -25.2 L 42.77 -25.2 C 38.41 -25.2 35.1 -21.89 35.1 -17.53 L 35.1 0 L 40.14 0 L 40.14 -17.53 C 40.14 -19.44 40.86 -20.16 42.77 -20.16 L 48.31 -20.16 C 50.22 -20.16 50.94 -19.44 50.94 -17.53 L 50.94 -15.12 L 41.94 -15.12 L 41.94 -10.08 L 50.94 -10.08 L 50.94 0 Z M 89.64 -5.04 L 76.43 -5.04 C 74.52 -5.04 73.8 -5.76 73.8 -7.67 L 73.8 -25.2 L 68.76 -25.2 L 68.76 -7.67 C 68.76 -3.31 72.07 0 76.43 0 L 89.64 0 Z M 124.56 0 L 124.56 -8.28 L 119.52 -8.28 L 119.52 0 Z M 119.52 -10.08 L 137.88 -10.08 L 137.88 -15.12 L 124.56 -15.12 L 124.56 -17.53 C 124.56 -19.44 125.28 -20.16 127.19 -20.16 L 140.4 -20.16 L 140.4 -25.2 L 127.19 -25.2 C 122.83 -25.2 119.52 -21.89 119.52 -17.53 Z M 174.06 -5 L 160.85 -5 C 158.94 -5 158.22 -5.72 158.22 -7.63 L 158.22 -8.28 L 153.18 -8.28 L 153.18 -7.63 C 153.18 -3.28 156.49 0.04 160.85 0.04 L 174.06 0.04 Z M 153.18 -10.08 L 171.54 -10.08 L 171.54 -15.12 L 158.22 -15.12 L 158.22 -20.16 L 174.06 -20.16 L 174.06 -25.2 L 153.18 -25.2 Z M 186.84 -10.08 L 200.05 -10.08 C 201.96 -10.08 202.68 -9.36 202.68 -7.45 L 202.68 0 L 207.72 0 L 207.72 -7.45 C 207.72 -9.43 207.04 -11.23 205.85 -12.56 C 207.04 -13.86 207.72 -15.59 207.72 -17.53 C 207.72 -21.89 204.41 -25.2 200.05 -25.2 L 186.84 -25.2 Z M 186.84 0 L 191.88 0 L 191.88 -8.28 L 186.84 -8.28 Z M 191.88 -15.12 L 191.88 -20.16 L 200.05 -20.16 C 201.96 -20.16 202.68 -19.44 202.68 -17.53 C 202.68 -15.77 202 -15.12 200.05 -15.12 Z M 220.5 -10.08 L 233.71 -10.08 C 235.62 -10.08 236.34 -9.36 236.34 -7.45 L 236.34 0 L 241.38 0 L 241.38 -7.45 C 241.38 -9.43 240.7 -11.23 239.51 -12.56 C 240.7 -13.86 241.38 -15.59 241.38 -17.53 C 241.38 -21.89 238.07 -25.2 233.71 -25.2 L 220.5 -25.2 Z M 220.5 0 L 225.54 0 L 225.54 -8.28 L 220.5 -8.28 Z M 225.54 -15.12 L 225.54 -20.16 L 233.71 -20.16 C 235.62 -20.16 236.34 -19.44 236.34 -17.53 C 236.34 -15.77 235.66 -15.12 233.71 -15.12 Z M 259.2 -10.08 L 259.2 -17.53 C 259.2 -19.44 259.92 -20.16 261.83 -20.16 L 267.37 -20.16 C 269.28 -20.16 270 -19.44 270 -17.53 L 270 -7.67 C 270 -5.76 269.28 -5.04 267.37 -5.04 L 261.83 -5.04 C 259.92 -5.04 259.2 -5.76 259.2 -7.67 L 259.2 -8.28 L 254.16 -8.28 L 254.16 -7.67 C 254.16 -3.31 257.47 0 261.83 0 L 267.37 0 C 271.73 0 275.04 -3.31 275.04 -7.67 L 275.04 -17.53 C 275.04 -21.89 271.73 -25.2 267.37 -25.2 L 261.83 -25.2 C 257.47 -25.2 254.16 -21.89 254.16 -17.53 L 254.16 -10.08 Z" stroke-linecap="round" />
</g>
</g>
</g>
<g transform="matrix(1.9211538461538462 0 0 1.9211538461538462 812.0203684601947 661.9529051508747)" id="tagline-f52beb5f-d8fb-458a-9a84-d0d8079d4cd6-logo"  >
<g style=""  paint-order="stroke"   >
		<g transform="matrix(1 0 0 1 0 0)" id="tagline-f52beb5f-d8fb-458a-9a84-d0d8079d4cd6-logo-path-0"  >
<path style="stroke: none; stroke-width: 0; stroke-dasharray: none; stroke-linecap: butt; stroke-dashoffset: 0; stroke-linejoin: miter; stroke-miterlimit: 4; fill: rgb(224,36,102); fill-rule: nonzero; opacity: 1;"  paint-order="stroke"  transform=" translate(-112.275, 5.25)" d="M 5.37 -10.5 L 3.51 0 L 6.72 0 L 8.27 -8.76 L 10.54 -8.76 L 10.86 -10.5 Z M 1.56 -10.5 L 2.16 -9.6 L 2.01 -8.76 L 4.3 -8.76 L 4.62 -10.5 Z M 11.58 -9 L 9.99 0 L 12.84 0 L 14.43 -9 Z M 13.98 -3.88 L 17.43 -3.88 L 16.74 0 L 19.59 0 L 21.18 -9 L 18.33 -9 L 17.68 -5.38 L 14.25 -5.38 Z M 22.17 -9 L 20.58 0 L 23.43 0 L 25.02 -9 Z M 23.88 0 L 28.17 0 L 28.44 -1.48 L 24.15 -1.48 Z M 24.55 -3.9 L 28.2 -3.9 L 28.47 -5.38 L 24.82 -5.38 Z M 25.2 -7.51 L 29.49 -7.51 L 29.76 -9 L 25.47 -9 Z M 33.75 -9 L 32.16 0 L 35.01 0 L 36.6 -9 Z M 35.46 0 L 40.2 0 L 42.08 -1.77 L 43.08 -7.47 L 41.55 -9 L 37.05 -9 L 36.78 -7.5 L 40.23 -7.5 L 39.18 -1.5 L 35.73 -1.5 Z M 44.34 -9 L 42.75 0 L 45.6 0 L 47.19 -9 Z M 46.05 0 L 50.34 0 L 50.61 -1.48 L 46.32 -1.48 Z M 46.72 -3.9 L 50.37 -3.9 L 50.64 -5.38 L 46.99 -5.38 Z M 47.37 -7.51 L 51.66 -7.51 L 51.93 -9 L 47.64 -9 Z M 52.92 -9 L 51.6 -1.53 L 53.13 0 L 54.19 0 L 55.77 -9 Z M 54.64 0 L 56.82 0 L 62.79 -9 L 59.8 -9 L 54.93 -1.62 Z M 63.78 -9 L 62.19 0 L 65.04 0 L 66.63 -9 Z M 65.49 0 L 69.78 0 L 70.05 -1.48 L 65.76 -1.48 Z M 66.16 -3.9 L 69.81 -3.9 L 70.08 -5.38 L 66.43 -5.38 Z M 66.81 -7.51 L 71.1 -7.51 L 71.37 -9 L 67.08 -9 Z M 72.36 -9 L 70.77 0 L 73.62 0 L 75.21 -9 Z M 74.07 0 L 78.36 0 L 78.63 -1.48 L 74.34 -1.48 Z M 80.94 -9 L 79.62 -1.53 L 81.15 0 L 85.65 0 L 85.92 -1.5 L 82.47 -1.5 L 83.79 -9 Z M 83.97 -7.5 L 87.42 -7.5 L 86.1 0 L 88.95 0 L 90.27 -7.47 L 88.74 -9 L 84.24 -9 Z M 91.55 -9 L 89.94 0 L 92.8 0 L 94.13 -7.5 L 97.38 -7.5 L 97 -5.38 L 94.17 -5.38 L 93.9 -3.9 L 99.61 -3.9 L 100.23 -7.47 L 98.7 -9 Z M 101.52 -9 L 99.91 0 L 102.78 0 L 104.1 -7.5 L 107.35 -7.5 L 106.98 -5.38 L 104.14 -5.38 L 103.87 -3.9 L 109.59 -3.9 L 110.2 -7.47 L 108.67 -9 Z M 111.48 -9 L 109.89 0 L 112.74 0 L 114.33 -9 Z M 113.19 0 L 117.48 0 L 117.75 -1.48 L 113.46 -1.48 Z M 113.86 -3.9 L 117.51 -3.9 L 117.78 -5.38 L 114.13 -5.38 Z M 114.51 -7.51 L 118.8 -7.51 L 119.07 -9 L 114.78 -9 Z M 120.06 -9 L 118.47 0 L 121.32 0 L 122.91 -9 Z M 122.58 -4.74 L 123.69 0 L 125.4 0 L 128.8 -5.79 L 127.8 0 L 130.65 0 L 132.24 -9 L 129 -9 L 124.92 -2.08 L 123.31 -9 Z M 133.23 -9 L 131.64 0 L 134.49 0 L 136.08 -9 Z M 134.94 0 L 139.23 0 L 139.5 -1.48 L 135.21 -1.48 Z M 135.61 -3.9 L 139.26 -3.9 L 139.53 -5.38 L 135.88 -5.38 Z M 136.26 -7.51 L 140.55 -7.51 L 140.82 -9 L 136.53 -9 Z M 141.81 -9 L 140.22 0 L 143.07 0 L 144.66 -9 Z M 144.51 -5.75 L 146.58 0 L 149.82 0 L 151.41 -9 L 148.56 -9 L 147.4 -2.46 L 145.05 -9 Z M 155.01 -9 L 153.42 0 L 156.27 0 L 157.6 -7.51 L 159.45 -7.51 L 159.72 -9 Z M 152.13 -7.51 L 154.29 -7.51 L 154.56 -9 L 152.4 -9 Z M 164.58 -9.6 L 162.88 0 L 166.09 0 L 167.94 -10.5 L 163.98 -10.5 Z M 167.63 -4.54 L 171.66 -4.54 L 171.97 -6.29 L 167.94 -6.29 Z M 168.38 -8.76 L 173.16 -8.76 L 173.47 -10.5 L 168.69 -10.5 Z M 174.19 -9 L 172.6 0 L 175.45 0 L 177.04 -9 Z M 176.56 -3.88 L 180.04 -3.88 L 179.35 0 L 182.2 0 L 183.52 -7.47 L 181.99 -9 L 177.49 -9 L 177.22 -7.5 L 180.67 -7.5 L 180.3 -5.38 L 176.83 -5.38 Z M 184.78 -9 L 183.46 -1.53 L 184.99 0 L 186.04 0 L 187.63 -9 Z M 186.49 0 L 192.79 0 L 193.32 -3 L 190.47 -3 L 190.21 -1.5 L 186.76 -1.5 Z M 187.81 -7.5 L 191.26 -7.5 L 191.04 -6.24 L 193.9 -6.24 L 194.11 -7.47 L 192.58 -9 L 188.08 -9 Z M 198 -9 L 196.41 0 L 199.26 0 L 200.59 -7.51 L 202.44 -7.51 L 202.71 -9 Z M 195.12 -7.51 L 197.28 -7.51 L 197.55 -9 L 195.39 -9 Z M 203.7 -9 L 202.38 -1.53 L 203.91 0 L 208.41 0 L 208.68 -1.5 L 205.23 -1.5 L 206.55 -9 Z M 206.73 -7.5 L 210.18 -7.5 L 208.86 0 L 211.71 0 L 213.03 -7.47 L 211.5 -9 L 207 -9 Z M 214.3 -9 L 212.7 0 L 215.56 0 L 216.88 -7.5 L 220.14 -7.5 L 219.76 -5.38 L 216.93 -5.38 L 216.66 -3.9 L 217.59 -3.9 L 219.48 0 L 222.34 0 L 220.44 -3.9 L 222.37 -3.9 L 222.99 -7.47 L 221.46 -9 Z" stroke-linecap="round" />
</g>
</g>
</g>
<g transform="matrix(1.9211538461538462 0 0 1.9211538461538462 1045.1472892430909 658.0600218828458)" id="tagline-3cd24557-b9b3-4ee4-bf39-f92c095685cd-logo"  >
<g style=""  paint-order="stroke"   >
		<g transform="matrix(1 0 0 1 0 0)" id="tagline-3cd24557-b9b3-4ee4-bf39-f92c095685cd-logo-path-0"  >
<path style="stroke: none; stroke-width: 0; stroke-dasharray: none; stroke-linecap: butt; stroke-dashoffset: 0; stroke-linejoin: miter; stroke-miterlimit: 4; fill: rgb(224,36,102); fill-rule: nonzero; opacity: 1;"  paint-order="stroke"  transform=" translate(-6.984999999999999, 3.76)" d="M 6.98 1.83 L 6.98 1.83 Q 5.76 1.83 4.74 1.41 Q 3.72 1 2.97 0.25 Q 2.22 -0.5 1.81 -1.53 Q 1.4 -2.55 1.4 -3.76 L 1.4 -3.76 Q 1.4 -4.98 1.81 -6 Q 2.22 -7.02 2.97 -7.77 Q 3.72 -8.52 4.74 -8.93 Q 5.76 -9.35 6.98 -9.35 L 6.98 -9.35 Q 8.14 -9.35 9.15 -8.93 Q 10.16 -8.52 10.93 -7.77 Q 11.7 -7.02 12.13 -6 Q 12.57 -4.98 12.57 -3.76 L 12.57 -3.76 Q 12.57 -2.55 12.15 -1.53 Q 11.74 -0.5 10.99 0.25 Q 10.24 1 9.22 1.41 Q 8.2 1.83 6.98 1.83 Z M 7.21 -0.34 L 7.21 -0.34 Q 6.2 -0.34 5.53 -0.77 Q 4.87 -1.19 4.54 -1.96 Q 4.21 -2.73 4.21 -3.76 L 4.21 -3.76 Q 4.21 -4.75 4.56 -5.52 Q 4.91 -6.28 5.6 -6.72 Q 6.28 -7.15 7.27 -7.15 L 7.27 -7.15 Q 7.73 -7.15 8.22 -7.04 Q 8.71 -6.92 9.14 -6.7 L 9.14 -6.7 L 8.7 -5.77 Q 8.32 -5.97 7.96 -6.07 Q 7.6 -6.17 7.28 -6.17 L 7.28 -6.17 Q 6.68 -6.17 6.26 -5.88 Q 5.84 -5.59 5.62 -5.05 Q 5.4 -4.51 5.4 -3.76 L 5.4 -3.76 Q 5.4 -2.99 5.59 -2.45 Q 5.77 -1.91 6.18 -1.62 Q 6.6 -1.34 7.27 -1.34 L 7.27 -1.34 Q 7.62 -1.34 8.05 -1.44 Q 8.49 -1.54 8.86 -1.69 L 8.86 -1.69 L 8.86 -0.71 Q 8.5 -0.55 8.12 -0.45 Q 7.75 -0.34 7.21 -0.34 Z M 6.98 1.02 L 6.98 1.02 Q 7.96 1.02 8.81 0.66 Q 9.67 0.31 10.32 -0.33 Q 10.97 -0.97 11.34 -1.84 Q 11.7 -2.72 11.7 -3.76 L 11.7 -3.76 Q 11.7 -4.75 11.35 -5.62 Q 11.01 -6.48 10.37 -7.14 Q 9.74 -7.8 8.88 -8.17 Q 8.01 -8.55 6.98 -8.55 L 6.98 -8.55 Q 5.95 -8.55 5.08 -8.19 Q 4.22 -7.84 3.58 -7.2 Q 2.94 -6.56 2.59 -5.68 Q 2.25 -4.81 2.25 -3.76 L 2.25 -3.76 Q 2.25 -2.77 2.59 -1.91 Q 2.94 -1.04 3.58 -0.38 Q 4.22 0.27 5.08 0.64 Q 5.95 1.02 6.98 1.02 Z" stroke-linecap="round" />
</g>
</g>
</g>
</svg>